<svg fill="none" xmlns="http://www.w3.org/2000/svg" viewBox="0 0 27 27">
    <path d="M4.22 6.75a2.53 2.53 0 0 1 2.53-2.53h2.53a2.53 2.53 0 0 1 2.53 2.53v2.53a2.53 2.53 0 0 1-2.53 2.53H6.75a2.53 2.53 0 0 1-2.53-2.53zm0 10.97a2.53 2.53 0 0 1 2.53-2.53h2.53a2.53 2.53 0 0 1 2.53 2.53v2.53a2.53 2.53 0 0 1-2.53 2.53H6.75a2.53 2.53 0 0 1-2.53-2.53zM15.19 6.75a2.53 2.53 0 0 1 2.53-2.53h2.53a2.53 2.53 0 0 1 2.53 2.53v2.53a2.53 2.53 0 0 1-2.53 2.53h-2.53a2.53 2.53 0 0 1-2.53-2.53zm0 10.97a2.53 2.53 0 0 1 2.53-2.53h2.53a2.53 2.53 0 0 1 2.53 2.53v2.53a2.53 2.53 0 0 1-2.53 2.53h-2.53a2.53 2.53 0 0 1-2.53-2.53z" stroke="#666f74" stroke-width="1.5" stroke-linecap="round" stroke-linejoin="round"/>
</svg>
