<svg fill="none" xmlns="http://www.w3.org/2000/svg" viewBox="0 0 27 27">
    <path fill="#f5f5f5" d="M0 0h27v27H0z"/>
    <path fill="#fff" d="M-116-122h1440V902H-116z"/>
    <path fill="#eee" d="M-16-122h1240V901H-16z"/>
    <path fill="#fff" stroke="#ddd" d="M-15.5-121.5h231v1022h-231z"/>
    <path d="M17.7187 6.75a4.2186 4.2186 0 0 1-7.2018 2.9831A4.2187 4.2187 0 1 1 17.7187 6.75M5.0637 22.6328a8.4374 8.4374 0 0 1 14.3536-5.877 8.438 8.438 0 0 1 2.5191 5.877 20.18 20.18 0 0 1-8.4364 1.836c-3.0105 0-5.868-.657-8.4364-1.836" stroke="#666f74" stroke-width="1.5" stroke-linecap="round" stroke-linejoin="round"/>
</svg>
